<svg width="60" height="46" viewBox="0 0 60 46" fill="none" xmlns="http://www.w3.org/2000/svg">
<path d="M22.84 45.1C19.24 45.1 15.94 44.05 12.94 41.95C9.94 39.85 7.64 36.9 6.04 33.1C4.44 29.3 3.64 25.15 3.64 20.65C3.64 15.05 5.04 10.1 7.84 5.8L16.24 8.95C14.74 11.65 14 14.5 14 17.5C14 20.9 15.09 23.8 17.29 26.2C19.49 28.6 22.24 29.8 25.54 29.8C26.54 29.8 27.49 29.65 28.39 29.35L26.44 37.3C25.24 37.5 24.09 37.6 22.99 37.6C26.89 42.7 25.49 45.1 22.84 45.1ZM52.9 45.1C49.3 45.1 46 44.05 43 41.95C40 39.85 37.7 36.9 36.1 33.1C34.5 29.3 33.7 25.15 33.7 20.65C33.7 15.05 35.1 10.1 37.9 5.8L46.3 8.95C44.8 11.65 44.05 14.5 44.05 17.5C44.05 20.9 45.14 23.8 47.34 26.2C49.54 28.6 52.29 29.8 55.59 29.8C56.59 29.8 57.54 29.65 58.44 29.35L56.49 37.3C55.29 37.5 54.14 37.6 53.04 37.6C56.94 42.7 55.54 45.1 52.9 45.1Z" fill="#F97316"/>
</svg>